<?xml version="1.0" standalone="no"?>
<!DOCTYPE svg PUBLIC "-//W3C//DTD SVG 20010904//EN"
 "http://www.w3.org/TR/2001/REC-SVG-20010904/DTD/svg10.dtd">
<svg version="1.0" xmlns="http://www.w3.org/2000/svg"
 width="500.000000pt" height="500.000000pt" viewBox="0 0 500.000000 500.000000"
 preserveAspectRatio="xMidYMid meet">
<metadata>
Created by potrace 1.13, written by Peter Selinger 2001-2015
</metadata>
<g transform="translate(0.000000,500.000000) scale(0.100000,-0.100000)"
fill="#000000" stroke="none">
<path d="M2063 3697 l-402 -232 -1 -476 0 -477 403 -232 c221 -128 405 -234
408 -236 3 -2 34 14 70 36 l64 38 40 -24 40 -23 335 193 335 194 3 391 2 391
-32 20 c-33 20 -33 21 -38 112 l-5 92 -400 233 c-220 127 -404 232 -410 232
-5 0 -191 -104 -412 -232z m677 -235 c0 -4 -117 -79 -260 -167 -207 -127 -257
-162 -248 -173 6 -7 17 -11 25 -8 7 3 130 77 273 166 l259 160 30 -18 c17 -9
31 -19 31 -22 0 -3 -117 -77 -260 -165 -142 -88 -258 -164 -256 -170 1 -5 9
-11 18 -13 8 -2 129 68 269 154 140 86 261 159 270 161 9 3 31 -4 49 -15 l33
-21 -30 -18 c-303 -185 -502 -309 -503 -315 0 -4 8 -9 19 -13 13 -4 99 44 286
160 l268 165 34 -21 34 -21 -33 -23 c-18 -12 -138 -86 -267 -165 -209 -128
-231 -145 -215 -157 15 -11 21 -11 38 1 12 7 132 82 269 166 238 147 248 152
277 140 65 -27 63 -29 -216 -201 -231 -142 -263 -165 -248 -176 9 -7 22 -9 28
-6 6 4 121 75 256 158 135 83 251 155 258 159 9 6 12 -60 12 -316 l0 -323
-262 -152 c-145 -83 -271 -155 -280 -158 -12 -5 -103 42 -293 151 l-275 159 0
326 0 326 278 160 c269 156 278 160 305 147 15 -8 27 -18 27 -22z"/>
<path d="M1300 1828 c0 -2 18 -95 40 -208 22 -112 40 -206 40 -207 0 -2 24 -3
54 -3 l54 0 20 68 c12 37 31 102 43 144 13 43 26 75 29 70 4 -4 24 -69 46
-144 l39 -138 55 0 55 0 38 198 c20 108 37 203 37 210 0 9 -14 12 -47 10 l-47
-3 -18 -105 c-26 -159 -29 -173 -35 -166 -3 3 -23 65 -43 138 l-38 133 -44 3
-44 3 -40 -141 c-21 -77 -41 -140 -45 -140 -3 0 -11 35 -17 78 -7 42 -17 105
-23 140 l-11 62 -49 0 c-27 0 -49 -1 -49 -2z"/>
<path d="M1890 1680 c0 -161 8 -197 51 -237 71 -64 222 -48 269 30 18 28 20
51 20 195 l0 162 -40 0 -40 0 0 -122 c0 -146 -11 -195 -46 -208 -42 -16 -74
-11 -99 15 -24 23 -25 28 -25 170 l0 145 -45 0 -45 0 0 -150z"/>
<path d="M2307 1823 c-4 -3 -7 -98 -7 -210 l0 -203 45 0 45 0 0 210 0 210 -38
0 c-21 0 -42 -3 -45 -7z"/>
<path d="M2470 1620 l0 -210 120 0 120 0 0 40 0 40 -75 0 -75 0 0 170 0 170
-45 0 -45 0 0 -210z"/>
<path d="M2880 1682 c0 -173 -7 -192 -69 -192 -20 0 -42 5 -49 12 -9 9 -12 1
-12 -40 0 -50 1 -51 33 -57 41 -8 106 8 139 35 36 28 48 89 48 249 l0 141 -45
0 -45 0 0 -148z"/>
<path d="M3040 1620 l0 -210 45 0 45 0 0 210 0 210 -45 0 -45 0 0 -210z"/>
<path d="M3255 1818 c-3 -7 -23 -102 -44 -211 l-38 -197 48 0 c55 0 50 -9 75
140 26 161 26 161 70 2 l39 -142 45 0 45 0 39 140 c22 77 42 137 46 133 4 -5
14 -57 24 -118 27 -168 21 -155 76 -155 l48 0 -13 68 c-7 37 -26 131 -41 210
l-27 142 -53 0 -53 0 -25 -82 c-14 -46 -33 -111 -42 -145 -10 -35 -20 -63 -23
-63 -3 0 -24 64 -47 143 l-41 142 -52 3 c-35 2 -53 -1 -56 -10z"/>
</g>
</svg>
